<svg width="1211" height="133" viewBox="0 0 1211 133" fill="none" xmlns="http://www.w3.org/2000/svg">
<rect y="0.399963" width="49" height="132" rx="14" fill="#417A9D"/>
<rect x="64" y="0.399963" width="49" height="132" rx="14" fill="#206651"/>
<rect x="128" y="0.399963" width="49" height="132" rx="14" fill="#EFB41B"/>
<path d="M1181.26 131V86.3714H1164V76H1211V86.3714H1193.74V131H1181.26Z" fill="#383C3F"/>
<path d="M1110 131V76H1120.44L1152.6 115.6H1147.54V76H1160V131H1149.64L1117.4 91.4H1122.46V131H1110Z" fill="#383C3F"/>
<path d="M1061 131V76H1101.99V86.2143H1073.48V120.786H1103V131H1061ZM1072.55 108.057V98.1571H1098.66V108.057H1072.55Z" fill="#383C3F"/>
<path d="M989 131V76H999.53L1022.95 114.814H1017.37L1040.39 76H1050.84L1051 131H1039.06L1038.98 94.3071H1041.18L1022.79 125.186H1017.05L998.272 94.3071H1000.94V131H989Z" fill="#383C3F"/>
<path d="M940 131V76H980.993V86.2143H952.476V120.786H982V131H940ZM951.546 108.057V98.1571H977.661V108.057H951.546Z" fill="#383C3F"/>
<path d="M908.861 132C904.536 132 900.549 131.318 896.901 129.953C893.305 128.536 890.152 126.541 887.442 123.97C884.785 121.398 882.7 118.38 881.189 114.916C879.73 111.452 879 107.646 879 103.5C879 99.3536 879.73 95.5483 881.189 92.0843C882.7 88.6202 884.811 85.6022 887.521 83.0304C890.231 80.4586 893.41 78.4903 897.058 77.1257C900.706 75.7086 904.718 75 909.096 75C913.943 75 918.294 75.8135 922.15 77.4406C926.059 79.0677 929.342 81.4296 932 84.5262L923.87 92.0843C921.89 89.9848 919.727 88.4365 917.382 87.4392C915.037 86.3895 912.483 85.8646 909.721 85.8646C907.063 85.8646 904.64 86.2845 902.451 87.1243C900.263 87.9641 898.36 89.1713 896.745 90.7459C895.181 92.3204 893.957 94.1837 893.071 96.3356C892.237 98.4876 891.82 100.876 891.82 103.5C891.82 106.072 892.237 108.434 893.071 110.586C893.957 112.738 895.181 114.627 896.745 116.254C898.36 117.829 900.237 119.036 902.373 119.876C904.562 120.715 906.959 121.135 909.565 121.135C912.066 121.135 914.49 120.742 916.835 119.954C919.232 119.115 921.551 117.724 923.792 115.782L930.984 124.993C928.013 127.25 924.548 128.982 920.587 130.189C916.678 131.396 912.77 132 908.861 132ZM930.984 124.993L919.414 123.34V102.634H930.984V124.993Z" fill="#383C3F"/>
<path d="M819 131L843.642 76H856.279L881 131H867.573L847.354 82.4429H852.409L832.111 131H819ZM831.321 119.214L834.717 109.55H863.15L866.626 119.214H831.321Z" fill="#383C3F"/>
<path d="M766 131V76H776.645L809.453 115.6H804.29V76H817V131H806.435L773.547 91.4H778.71V131H766Z" fill="#383C3F"/>
<path d="M703 131L727.245 76H739.678L764 131H750.79L730.897 82.4429H735.87L715.899 131H703ZM715.122 119.214L718.464 109.55H746.438L749.857 119.214H715.122Z" fill="#383C3F"/>
<path d="M638 131V76H648.53L671.947 114.814H666.368L689.392 76H699.843L700 131H688.056L687.977 94.3071H690.177L671.79 125.186H666.053L647.272 94.3071H649.944V131H638Z" fill="#383C3F"/>
<path d="M590.526 132C586.1 132 581.858 131.423 577.801 130.268C573.743 129.061 570.477 127.512 568 125.623L572.347 116.018C574.718 117.698 577.511 119.088 580.725 120.191C583.992 121.24 587.285 121.765 590.605 121.765C593.134 121.765 595.163 121.529 596.691 121.057C598.271 120.532 599.431 119.823 600.168 118.931C600.906 118.039 601.275 117.015 601.275 115.86C601.275 114.391 600.695 113.236 599.536 112.396C598.377 111.504 596.849 110.796 594.952 110.271C593.055 109.693 590.947 109.169 588.629 108.696C586.363 108.171 584.071 107.541 581.753 106.807C579.487 106.072 577.405 105.127 575.509 103.972C573.612 102.818 572.057 101.296 570.845 99.4061C569.686 97.5166 569.107 95.1022 569.107 92.163C569.107 89.0138 569.95 86.1533 571.636 83.5815C573.375 80.9572 575.956 78.884 579.381 77.3619C582.859 75.7873 587.206 75 592.423 75C595.9 75 599.325 75.4199 602.698 76.2597C606.07 77.047 609.047 78.2541 611.629 79.8812L607.677 89.5649C605.095 88.0953 602.513 87.0193 599.931 86.337C597.349 85.6022 594.82 85.2348 592.344 85.2348C589.867 85.2348 587.839 85.5235 586.258 86.1008C584.677 86.6782 583.544 87.4392 582.859 88.384C582.174 89.2762 581.832 90.326 581.832 91.5331C581.832 92.9503 582.411 94.105 583.57 94.9972C584.73 95.837 586.258 96.5193 588.155 97.0442C590.052 97.5691 592.133 98.0939 594.399 98.6188C596.717 99.1436 599.009 99.7472 601.275 100.43C603.593 101.112 605.701 102.03 607.598 103.185C609.495 104.34 611.023 105.862 612.182 107.751C613.394 109.641 614 112.029 614 114.916C614 118.012 613.131 120.847 611.392 123.419C609.653 125.99 607.045 128.064 603.567 129.638C600.142 131.213 595.795 132 590.526 132Z" fill="#383C3F"/>
<path d="M538.626 131V86.3714H521V76H569V86.3714H551.374V131H538.626Z" fill="#383C3F"/>
<path d="M501.503 132C497.299 132 493.381 131.318 489.748 129.953C486.168 128.536 483.054 126.541 480.407 123.97C477.76 121.398 475.685 118.38 474.18 114.916C472.727 111.452 472 107.646 472 103.5C472 99.3536 472.727 95.5483 474.18 92.0843C475.685 88.6202 477.76 85.6022 480.407 83.0304C483.106 80.4586 486.245 78.4903 489.826 77.1257C493.407 75.7086 497.325 75 501.581 75C506.303 75 510.559 75.8398 514.347 77.5193C518.188 79.1464 521.405 81.5608 524 84.7624L515.904 92.3204C514.036 90.1685 511.96 88.5677 509.677 87.518C507.393 86.4157 504.902 85.8646 502.204 85.8646C499.661 85.8646 497.325 86.2845 495.198 87.1243C493.07 87.9641 491.228 89.1713 489.671 90.7459C488.114 92.3204 486.894 94.1837 486.012 96.3356C485.182 98.4876 484.766 100.876 484.766 103.5C484.766 106.124 485.182 108.512 486.012 110.664C486.894 112.816 488.114 114.68 489.671 116.254C491.228 117.829 493.07 119.036 495.198 119.876C497.325 120.715 499.661 121.135 502.204 121.135C504.902 121.135 507.393 120.611 509.677 119.561C511.96 118.459 514.036 116.805 515.904 114.601L524 122.159C521.405 125.361 518.188 127.801 514.347 129.481C510.559 131.16 506.277 132 501.503 132Z" fill="#383C3F"/>
<path d="M426 131V76H466.993V86.2143H438.476V120.786H468V131H426ZM437.546 108.057V98.1571H463.661V108.057H437.546Z" fill="#383C3F"/>
<path d="M396.575 132C392.926 132 389.56 131.318 386.477 129.955C383.445 128.539 380.953 126.547 379 123.978L385.937 115.483C387.428 117.476 388.995 118.996 390.64 120.045C392.284 121.041 394.057 121.539 395.958 121.539C401.046 121.539 403.59 118.498 403.59 112.416V86.2247H384.627V76H416V111.708C416 118.524 414.356 123.61 411.067 126.966C407.778 130.322 402.947 132 396.575 132Z" fill="#383C3F"/>
<path d="M351.577 132C347.315 132 343.361 131.291 339.715 129.874C336.121 128.457 332.989 126.463 330.319 123.891C327.7 121.319 325.646 118.301 324.157 114.837C322.719 111.373 322 107.594 322 103.5C322 99.4061 322.719 95.6271 324.157 92.163C325.646 88.6989 327.725 85.6809 330.396 83.1091C333.066 80.5373 336.198 78.5428 339.792 77.1257C343.387 75.7086 347.289 75 351.5 75C355.762 75 359.665 75.7086 363.208 77.1257C366.802 78.5428 369.909 80.5373 372.527 83.1091C375.198 85.6809 377.277 88.6989 378.766 92.163C380.255 95.5746 381 99.3536 381 103.5C381 107.594 380.255 111.399 378.766 114.916C377.277 118.38 375.198 121.398 372.527 123.97C369.909 126.489 366.802 128.457 363.208 129.874C359.665 131.291 355.788 132 351.577 132ZM351.5 121.135C353.913 121.135 356.121 120.715 358.124 119.876C360.178 119.036 361.975 117.829 363.516 116.254C365.056 114.68 366.237 112.816 367.059 110.664C367.932 108.512 368.368 106.124 368.368 103.5C368.368 100.876 367.932 98.4876 367.059 96.3356C366.237 94.1837 365.056 92.3204 363.516 90.7459C362.027 89.1713 360.255 87.9641 358.201 87.1243C356.147 86.2845 353.913 85.8646 351.5 85.8646C349.087 85.8646 346.853 86.2845 344.799 87.1243C342.796 87.9641 341.025 89.1713 339.484 90.7459C337.944 92.3204 336.737 94.1837 335.864 96.3356C335.043 98.4876 334.632 100.876 334.632 103.5C334.632 106.072 335.043 108.46 335.864 110.664C336.737 112.816 337.918 114.68 339.407 116.254C340.948 117.829 342.745 119.036 344.799 119.876C346.853 120.715 349.087 121.135 351.5 121.135Z" fill="#383C3F"/>
<path d="M271 131V76H294.148C301.684 76 307.542 77.781 311.723 81.3429C315.903 84.8524 317.994 89.7238 317.994 95.9571C317.994 100.043 317.039 103.579 315.129 106.564C313.219 109.498 310.51 111.75 307 113.321C303.49 114.893 299.31 115.679 294.458 115.679H277.968L283.542 110.1V131H271ZM305.452 131L291.903 111.043H305.297L319 131H305.452ZM283.542 111.514L277.968 105.543H293.761C297.632 105.543 300.523 104.705 302.432 103.029C304.342 101.3 305.297 98.9429 305.297 95.9571C305.297 92.919 304.342 90.5619 302.432 88.8857C300.523 87.2095 297.632 86.3714 293.761 86.3714H277.968L283.542 80.3214V111.514Z" fill="#383C3F"/>
<path d="M217 131V76H240.96C245.916 76 250.186 76.8119 253.771 78.4357C257.356 80.0071 260.124 82.2857 262.074 85.2714C264.025 88.2571 265 91.819 265 95.9571C265 100.043 264.025 103.579 262.074 106.564C260.124 109.55 257.356 111.855 253.771 113.479C250.186 115.05 245.916 115.836 240.96 115.836H224.117L229.811 110.1V131H217ZM229.811 111.514L224.117 105.464H240.249C244.203 105.464 247.155 104.626 249.105 102.95C251.056 101.274 252.031 98.9429 252.031 95.9571C252.031 92.919 251.056 90.5619 249.105 88.8857C247.155 87.2095 244.203 86.3714 240.249 86.3714H224.117L229.811 80.3214V111.514Z" fill="#383C3F"/>
<path d="M560.861 57C556.536 57 552.549 56.3177 548.901 54.953C545.305 53.5359 542.152 51.5414 539.442 48.9696C536.785 46.3978 534.7 43.3798 533.189 39.9158C531.73 36.4517 531 32.6464 531 28.5C531 24.3536 531.73 20.5483 533.189 17.0843C534.7 13.6202 536.811 10.6022 539.521 8.03039C542.231 5.45856 545.41 3.49033 549.058 2.12569C552.706 0.708562 556.718 0 561.096 0C565.942 0 570.294 0.813534 574.15 2.4406C578.059 4.06768 581.342 6.42956 584 9.52624L575.87 17.0843C573.89 14.9848 571.727 13.4365 569.382 12.4392C567.037 11.3895 564.483 10.8646 561.721 10.8646C559.063 10.8646 556.64 11.2845 554.451 12.1243C552.263 12.9641 550.36 14.1713 548.745 15.7459C547.181 17.3204 545.957 19.1837 545.071 21.3356C544.237 23.4876 543.82 25.8757 543.82 28.5C543.82 31.0718 544.237 33.4337 545.071 35.5856C545.957 37.7376 547.181 39.6271 548.745 41.2541C550.36 42.8287 552.236 44.0359 554.373 44.8757C556.562 45.7155 558.959 46.1354 561.565 46.1354C564.066 46.1354 566.49 45.7417 568.835 44.9544C571.232 44.1146 573.551 42.7238 575.792 40.7818L582.984 49.9931C580.013 52.25 576.548 53.9821 572.587 55.1892C568.678 56.3964 564.77 57 560.861 57ZM582.984 49.9931L571.414 48.3398V27.634H582.984V49.9931Z" fill="#383C3F"/>
<path d="M475 56V1H485.436L517.601 40.6H512.539V1H525V56H514.642L482.399 16.4H487.461V56H475Z" fill="#383C3F"/>
<path d="M452 56V1H465V56H452Z" fill="#383C3F"/>
<path d="M418.626 56V11.3714H401V1H449V11.3714H431.374V56H418.626Z" fill="#383C3F"/>
<path d="M347 56V1H357.436L389.601 40.6H384.539V1H397V56H386.642L354.399 16.4H359.461V56H347Z" fill="#383C3F"/>
<path d="M324 56V1H337V56H324Z" fill="#383C3F"/>
<path d="M261 56L285.245 1H297.678L322 56H308.79L288.897 7.44286H293.87L273.899 56H261ZM273.122 44.2143L276.464 34.55H304.438L307.857 44.2143H273.122Z" fill="#383C3F"/>
<path d="M217 56V1H240.96C245.916 1 250.186 1.8119 253.771 3.43571C257.356 5.00714 260.124 7.28571 262.074 10.2714C264.025 13.2571 265 16.819 265 20.9571C265 25.0429 264.025 28.5786 262.074 31.5643C260.124 34.55 257.356 36.8548 253.771 38.4786C250.186 40.05 245.916 40.8357 240.96 40.8357H224.117L229.811 35.1V56H217ZM229.811 36.5143L224.117 30.4643H240.249C244.203 30.4643 247.155 29.6262 249.105 27.95C251.056 26.2738 252.031 23.9429 252.031 20.9571C252.031 17.919 251.056 15.5619 249.105 13.8857C247.155 12.2095 244.203 11.3714 240.249 11.3714H224.117L229.811 5.32143V36.5143Z" fill="#383C3F"/>
</svg>
