<svg width="690" height="402" viewBox="0 0 690 402" fill="none" xmlns="http://www.w3.org/2000/svg">
<path d="M622.377 230.2C616.844 230.2 611.744 229.333 607.077 227.6C602.477 225.8 598.444 223.267 594.977 220C591.577 216.733 588.911 212.9 586.977 208.5C585.111 204.1 584.177 199.267 584.177 194C584.177 188.733 585.111 183.9 586.977 179.5C588.911 175.1 591.611 171.267 595.077 168C598.544 164.733 602.611 162.233 607.277 160.5C611.944 158.7 617.077 157.8 622.677 157.8C628.877 157.8 634.444 158.833 639.377 160.9C644.377 162.967 648.577 165.967 651.977 169.9L641.577 179.5C639.044 176.833 636.277 174.867 633.277 173.6C630.277 172.267 627.011 171.6 623.477 171.6C620.077 171.6 616.977 172.133 614.177 173.2C611.377 174.267 608.944 175.8 606.877 177.8C604.877 179.8 603.311 182.167 602.177 184.9C601.111 187.633 600.577 190.667 600.577 194C600.577 197.267 601.111 200.267 602.177 203C603.311 205.733 604.877 208.133 606.877 210.2C608.944 212.2 611.344 213.733 614.077 214.8C616.877 215.867 619.944 216.4 623.277 216.4C626.477 216.4 629.577 215.9 632.577 214.9C635.644 213.833 638.611 212.067 641.477 209.6L650.677 221.3C646.877 224.167 642.444 226.367 637.377 227.9C632.377 229.433 627.377 230.2 622.377 230.2ZM650.677 221.3L635.877 219.2V192.9H650.677V221.3Z" fill="#D9D9D9"/>
<path d="M511.816 229V159H525.216L566.516 209.4H560.016V159H576.016V229H562.716L521.316 178.6H527.816V229H511.816Z" fill="#D9D9D9"/>
<path d="M483.003 229V159H499.203V229H483.003Z" fill="#D9D9D9"/>
<path d="M439.687 229V172.2H417.287V159H478.287V172.2H455.887V229H439.687Z" fill="#D9D9D9"/>
<path d="M348.425 229V159H361.825L403.125 209.4H396.625V159H412.625V229H399.325L357.925 178.6H364.425V229H348.425Z" fill="#D9D9D9"/>
<path d="M319.613 229V159H335.813V229H319.613Z" fill="#D9D9D9"/>
<path d="M237.85 229L269.05 159H285.05L316.35 229H299.35L273.75 167.2H280.15L254.45 229H237.85ZM253.45 214L257.75 201.7H293.75L298.15 214H253.45Z" fill="#D9D9D9"/>
<path d="M182.3 229V159H212.6C218.867 159 224.267 160.033 228.8 162.1C233.333 164.1 236.833 167 239.3 170.8C241.767 174.6 243 179.133 243 184.4C243 189.6 241.767 194.1 239.3 197.9C236.833 201.7 233.333 204.633 228.8 206.7C224.267 208.7 218.867 209.7 212.6 209.7H191.3L198.5 202.4V229H182.3ZM198.5 204.2L191.3 196.5H211.7C216.7 196.5 220.433 195.433 222.9 193.3C225.367 191.167 226.6 188.2 226.6 184.4C226.6 180.533 225.367 177.533 222.9 175.4C220.433 173.267 216.7 172.2 211.7 172.2H191.3L198.5 164.5V204.2Z" fill="#D9D9D9"/>
<path d="M659.624 327.2C654.024 327.2 648.658 326.467 643.524 325C638.391 323.467 634.258 321.5 631.124 319.1L636.624 306.9C639.624 309.033 643.158 310.8 647.224 312.2C651.358 313.533 655.524 314.2 659.724 314.2C662.924 314.2 665.491 313.9 667.424 313.3C669.424 312.633 670.891 311.733 671.824 310.6C672.758 309.467 673.224 308.167 673.224 306.7C673.224 304.833 672.491 303.367 671.024 302.3C669.558 301.167 667.624 300.267 665.224 299.6C662.824 298.867 660.158 298.2 657.224 297.6C654.358 296.933 651.458 296.133 648.524 295.2C645.658 294.267 643.024 293.067 640.624 291.6C638.224 290.133 636.258 288.2 634.724 285.8C633.258 283.4 632.524 280.333 632.524 276.6C632.524 272.6 633.591 268.967 635.724 265.7C637.924 262.367 641.191 259.733 645.524 257.8C649.924 255.8 655.424 254.8 662.024 254.8C666.424 254.8 670.758 255.333 675.024 256.4C679.291 257.4 683.058 258.933 686.324 261L681.324 273.3C678.058 271.433 674.791 270.067 671.524 269.2C668.258 268.267 665.058 267.8 661.924 267.8C658.791 267.8 656.224 268.167 654.224 268.9C652.224 269.633 650.791 270.6 649.924 271.8C649.058 272.933 648.624 274.267 648.624 275.8C648.624 277.6 649.358 279.067 650.824 280.2C652.291 281.267 654.224 282.133 656.624 282.8C659.024 283.467 661.658 284.133 664.524 284.8C667.458 285.467 670.358 286.233 673.224 287.1C676.158 287.967 678.824 289.133 681.224 290.6C683.624 292.067 685.558 294 687.024 296.4C688.558 298.8 689.324 301.833 689.324 305.5C689.324 309.433 688.224 313.033 686.024 316.3C683.824 319.567 680.524 322.2 676.124 324.2C671.791 326.2 666.291 327.2 659.624 327.2Z" fill="#D9D9D9"/>
<path d="M593.796 326V269.2H571.396V256H632.396V269.2H609.996V326H593.796Z" fill="#D9D9D9"/>
<path d="M545.702 327.2C540.302 327.2 535.269 326.333 530.602 324.6C526.002 322.8 522.002 320.267 518.602 317C515.202 313.733 512.536 309.9 510.602 305.5C508.736 301.1 507.802 296.267 507.802 291C507.802 285.733 508.736 280.9 510.602 276.5C512.536 272.1 515.202 268.267 518.602 265C522.069 261.733 526.102 259.233 530.702 257.5C535.302 255.7 540.336 254.8 545.802 254.8C551.869 254.8 557.336 255.867 562.202 258C567.136 260.067 571.269 263.133 574.602 267.2L564.202 276.8C561.802 274.067 559.136 272.033 556.202 270.7C553.269 269.3 550.069 268.6 546.602 268.6C543.336 268.6 540.336 269.133 537.602 270.2C534.869 271.267 532.502 272.8 530.502 274.8C528.502 276.8 526.936 279.167 525.802 281.9C524.736 284.633 524.202 287.667 524.202 291C524.202 294.333 524.736 297.367 525.802 300.1C526.936 302.833 528.502 305.2 530.502 307.2C532.502 309.2 534.869 310.733 537.602 311.8C540.336 312.867 543.336 313.4 546.602 313.4C550.069 313.4 553.269 312.733 556.202 311.4C559.136 310 561.802 307.9 564.202 305.1L574.602 314.7C571.269 318.767 567.136 321.867 562.202 324C557.336 326.133 551.836 327.2 545.702 327.2Z" fill="#D9D9D9"/>
<path d="M449.113 326V256H502.013V269H465.213V313H503.313V326H449.113ZM464.013 296.8V284.2H497.713V296.8H464.013Z" fill="#D9D9D9"/>
<path d="M411.911 327.2C407.178 327.2 402.811 326.333 398.811 324.6C394.878 322.8 391.644 320.267 389.111 317L398.111 306.2C400.044 308.733 402.078 310.667 404.211 312C406.344 313.267 408.644 313.9 411.111 313.9C417.711 313.9 421.011 310.033 421.011 302.3V269H396.411V256H437.111V301.4C437.111 310.067 434.978 316.533 430.711 320.8C426.444 325.067 420.178 327.2 411.911 327.2Z" fill="#D9D9D9"/>
<path d="M354.101 327.2C348.567 327.2 343.434 326.3 338.701 324.5C334.034 322.7 329.967 320.167 326.501 316.9C323.101 313.633 320.434 309.8 318.501 305.4C316.634 301 315.701 296.2 315.701 291C315.701 285.8 316.634 281 318.501 276.6C320.434 272.2 323.134 268.367 326.601 265.1C330.067 261.833 334.134 259.3 338.801 257.5C343.467 255.7 348.534 254.8 354.001 254.8C359.534 254.8 364.601 255.7 369.201 257.5C373.867 259.3 377.901 261.833 381.301 265.1C384.767 268.367 387.467 272.2 389.401 276.6C391.334 280.933 392.301 285.733 392.301 291C392.301 296.2 391.334 301.033 389.401 305.5C387.467 309.9 384.767 313.733 381.301 317C377.901 320.2 373.867 322.7 369.201 324.5C364.601 326.3 359.567 327.2 354.101 327.2ZM354.001 313.4C357.134 313.4 360.001 312.867 362.601 311.8C365.267 310.733 367.601 309.2 369.601 307.2C371.601 305.2 373.134 302.833 374.201 300.1C375.334 297.367 375.901 294.333 375.901 291C375.901 287.667 375.334 284.633 374.201 281.9C373.134 279.167 371.601 276.8 369.601 274.8C367.667 272.8 365.367 271.267 362.701 270.2C360.034 269.133 357.134 268.6 354.001 268.6C350.867 268.6 347.967 269.133 345.301 270.2C342.701 271.267 340.401 272.8 338.401 274.8C336.401 276.8 334.834 279.167 333.701 281.9C332.634 284.633 332.101 287.667 332.101 291C332.101 294.267 332.634 297.3 333.701 300.1C334.834 302.833 336.367 305.2 338.301 307.2C340.301 309.2 342.634 310.733 345.301 311.8C347.967 312.867 350.867 313.4 354.001 313.4Z" fill="#D9D9D9"/>
<path d="M250.566 326V256H280.466C290.199 256 297.766 258.267 303.166 262.8C308.566 267.267 311.266 273.467 311.266 281.4C311.266 286.6 310.032 291.1 307.566 294.9C305.099 298.633 301.599 301.5 297.066 303.5C292.532 305.5 287.132 306.5 280.866 306.5H259.566L266.766 299.4V326H250.566ZM295.066 326L277.566 300.6H294.866L312.566 326H295.066ZM266.766 301.2L259.566 293.6H279.966C284.966 293.6 288.699 292.533 291.166 290.4C293.632 288.2 294.866 285.2 294.866 281.4C294.866 277.533 293.632 274.533 291.166 272.4C288.699 270.267 284.966 269.2 279.966 269.2H259.566L266.766 261.5V301.2Z" fill="#D9D9D9"/>
<path d="M182.3 326V256H212.6C218.867 256 224.267 257.033 228.8 259.1C233.333 261.1 236.833 264 239.3 267.8C241.767 271.6 243 276.133 243 281.4C243 286.6 241.767 291.1 239.3 294.9C236.833 298.7 233.333 301.633 228.8 303.7C224.267 305.7 218.867 306.7 212.6 306.7H191.3L198.5 299.4V326H182.3ZM198.5 301.2L191.3 293.5H211.7C216.7 293.5 220.433 292.433 222.9 290.3C225.367 288.167 226.6 285.2 226.6 281.4C226.6 277.533 225.367 274.533 222.9 272.4C220.433 270.267 216.7 269.2 211.7 269.2H191.3L198.5 261.5V301.2Z" fill="#D9D9D9"/>
<path d="M627.802 397V360.648H613.466V352.2H652.506V360.648H638.17V397H627.802Z" fill="#D9D9D9"/>
<path d="M569.395 397V352.2H577.971L604.403 384.456H600.243V352.2H610.483V397H601.971L575.475 364.744H579.635V397H569.395Z" fill="#D9D9D9"/>
<path d="M529.017 397V352.2H562.873V360.52H539.321V388.68H563.705V397H529.017ZM538.553 378.312V370.248H560.121V378.312H538.553Z" fill="#D9D9D9"/>
<path d="M470.452 397V352.2H479.028L498.1 383.816H493.556L512.308 352.2H520.82L520.948 397H511.22L511.156 367.112H512.948L497.972 392.264H493.3L478.004 367.112H480.18V397H470.452Z" fill="#D9D9D9"/>
<path d="M430.074 397V352.2H463.93V360.52H440.378V388.68H464.762V397H430.074ZM439.61 378.312V370.248H461.178V378.312H439.61Z" fill="#D9D9D9"/>
<path d="M404.891 397.768C401.35 397.768 398.086 397.213 395.099 396.104C392.155 394.952 389.574 393.331 387.355 391.24C385.179 389.149 383.473 386.696 382.235 383.88C381.041 381.064 380.443 377.971 380.443 374.6C380.443 371.229 381.041 368.136 382.235 365.32C383.473 362.504 385.201 360.051 387.419 357.96C389.638 355.869 392.241 354.269 395.227 353.16C398.214 352.008 401.499 351.432 405.083 351.432C409.051 351.432 412.614 352.093 415.771 353.416C418.971 354.739 421.659 356.659 423.835 359.176L417.179 365.32C415.558 363.613 413.787 362.355 411.867 361.544C409.947 360.691 407.857 360.264 405.595 360.264C403.419 360.264 401.435 360.605 399.643 361.288C397.851 361.971 396.294 362.952 394.971 364.232C393.691 365.512 392.689 367.027 391.963 368.776C391.281 370.525 390.939 372.467 390.939 374.6C390.939 376.691 391.281 378.611 391.963 380.36C392.689 382.109 393.691 383.645 394.971 384.968C396.294 386.248 397.83 387.229 399.579 387.912C401.371 388.595 403.334 388.936 405.467 388.936C407.515 388.936 409.499 388.616 411.419 387.976C413.382 387.293 415.281 386.163 417.115 384.584L423.003 392.072C420.571 393.907 417.734 395.315 414.491 396.296C411.291 397.277 408.091 397.768 404.891 397.768ZM423.003 392.072L413.531 390.728V373.896H423.003V392.072Z" fill="#D9D9D9"/>
<path d="M331.557 397L351.525 352.2H361.765L381.797 397H370.917L354.533 357.448H358.629L342.181 397H331.557ZM341.541 387.4L344.293 379.528H367.333L370.149 387.4H341.541Z" fill="#D9D9D9"/>
<path d="M288.317 397V352.2H296.893L323.325 384.456H319.165V352.2H329.405V397H320.893L294.397 364.744H298.557V397H288.317Z" fill="#D9D9D9"/>
<path d="M235.989 397L255.957 352.2H266.197L286.229 397H275.349L258.965 357.448H263.061L246.613 397H235.989ZM245.973 387.4L248.725 379.528H271.765L274.581 387.4H245.973Z" fill="#D9D9D9"/>
<path d="M183.312 397V352.2H191.888L210.96 383.816H206.416L225.168 352.2H233.68L233.808 397H224.08L224.016 367.112H225.808L210.832 392.264H206.16L190.864 367.112H193.04V397H183.312Z" fill="#D9D9D9"/>
<rect x="181" width="49" height="132" rx="14" fill="#417A9D"/>
<rect x="245" width="49" height="132" rx="14" fill="#206651"/>
<rect x="309" width="49" height="132" rx="14" fill="#EFB41B"/>
<path d="M148 195H147.993C147.476 211.87 107.245 228.231 99.5 241.633C91.7056 255.122 108.5 328.062 108.5 346.047C108.5 364.032 105 402 73.5 402C42.0002 402 40 363.532 40 346.047C40 328.561 55 258.074 45.5 241.633C36.0471 225.274 0.359397 216.739 0.00390625 195H0V164H148V195ZM75 351C67.8203 351 62 356.82 62 364C62 371.18 67.8203 377 75 377C82.1797 377 88 371.18 88 364C88 356.82 82.1797 351 75 351Z" fill="#D9D9D9"/>
<path d="M0 14C0 6.26802 6.26801 0 14 0H134C141.732 0 148 6.26801 148 14V149H0V14Z" fill="#D9D9D9"/>
<path d="M148 84.5C147.833 85.6667 146.237 88.4282 142.296 91.6182C138.385 94.7841 137.331 107.004 137.075 111.949C137.087 112.226 137.095 112.504 137.095 112.783C137.095 123.553 128.364 132.283 117.595 132.283C107.234 132.283 98.7621 124.203 98.1338 114H98V84.5H97.9951C97.9965 84.5705 98 84.6411 98 84.7119C98 90.5109 93.299 95.2119 87.5 95.2119C81.701 95.2119 77 90.5109 77 84.7119C77 84.6411 77.0035 84.5705 77.0049 84.5H77V101H76.9736C76.5252 108.604 70.217 114.633 62.5 114.633C54.783 114.633 48.4748 108.604 48.0264 101H48V79.2676C47.9997 71.7678 38.4999 68.5 33.5 70.5C28.8576 72.357 25.4999 80.9999 15.1094 80.9141C6.79696 80.8453 1.40629 74.0765 0 70.6338V14C0 6.26801 6.26801 2.57703e-07 14 0H134C141.732 2.57703e-07 148 6.26801 148 14V84.5Z" fill="#D55F28"/>
</svg>
